<svg width="20" height="25" viewBox="0 0 20 25" fill="none" xmlns="http://www.w3.org/2000/svg">
<path d="M2.5 25C1.8125 25 1.22417 24.7554 0.735 24.2663C0.245 23.7763 0 23.1875 0 22.5V2.5C0 1.8125 0.245 1.22375 0.735 0.73375C1.22417 0.244583 1.8125 0 2.5 0H17.5C18.1875 0 18.7763 0.244583 19.2663 0.73375C19.7554 1.22375 20 1.8125 20 2.5V22.5C20 23.1875 19.7554 23.7763 19.2663 24.2663C18.7763 24.7554 18.1875 25 17.5 25H2.5ZM2.5 22.5H17.5V2.5H15V11.25L11.875 9.375L8.75 11.25V2.5H2.5V22.5Z"/>
</svg>
