<svg width="31" height="31" viewBox="0 0 31 31" fill="none" xmlns="http://www.w3.org/2000/svg">
<path d="M16.9583 16.9584H14.0416V8.20835H16.9583M16.9583 22.7917H14.0416V19.875H16.9583M15.5 0.916687C13.5848 0.916687 11.6885 1.2939 9.91916 2.02678C8.14983 2.75966 6.54217 3.83386 5.18799 5.18805C2.45308 7.92295 0.916626 11.6323 0.916626 15.5C0.916626 19.3678 2.45308 23.0771 5.18799 25.812C6.54217 27.1662 8.14983 28.2404 9.91916 28.9733C11.6885 29.7061 13.5848 30.0834 15.5 30.0834C19.3677 30.0834 23.077 28.5469 25.8119 25.812C28.5468 23.0771 30.0833 19.3678 30.0833 15.5C30.0833 13.5849 29.7061 11.6886 28.9732 9.91922C28.2403 8.14989 27.1661 6.54223 25.8119 5.18805C24.4577 3.83386 22.8501 2.75966 21.0808 2.02678C19.3114 1.2939 17.4151 0.916687 15.5 0.916687Z" fill="#F75A68"/>
</svg>
